<svg width="240" height="240" viewBox="0 0 240 240" fill="none" xmlns="http://www.w3.org/2000/svg">
<g filter="url(#filter0_d_335_4996)">
<circle cx="120.73" cy="114.73" r="98.7297" fill="#1DD846" fill-opacity="0.3"/>
<circle cx="122.035" cy="115.165" r="65.2399" fill="white"/>
<circle cx="120" cy="116" r="116" fill="#1DD846" fill-opacity="0.1"/>
<circle cx="121.533" cy="116.511" r="76.652" fill="white"/>
<circle cx="119.552" cy="115.552" r="76.139" fill="white"/>
<path d="M118.656 35.9296C102.908 35.9296 87.5142 40.5994 74.4203 49.3484C61.3265 58.0975 51.1211 70.5328 45.0946 85.0819C39.0682 99.631 37.4914 115.64 40.5637 131.086C43.6359 146.531 51.2192 160.718 62.3546 171.854C73.49 182.989 87.6774 190.572 103.123 193.645C118.568 196.717 134.577 195.14 149.126 189.114C163.676 183.087 176.111 172.882 184.86 159.788C193.609 146.694 198.279 131.3 198.279 115.552C198.279 94.4349 189.89 74.1826 174.958 59.2505C160.026 44.3184 139.773 35.9296 118.656 35.9296ZM170.66 88.8288L105.27 154.169L66.6528 115.552C65.333 114.232 64.5915 112.442 64.5915 110.576C64.5915 108.709 65.333 106.919 66.6528 105.599C67.9726 104.279 69.7627 103.538 71.6292 103.538C73.4957 103.538 75.2858 104.279 76.6056 105.599L105.369 134.363L160.806 78.9755C161.46 78.322 162.236 77.8036 163.09 77.45C163.943 77.0963 164.859 76.9142 165.783 76.9142C166.707 76.9142 167.622 77.0963 168.476 77.45C169.33 77.8036 170.106 78.322 170.759 78.9755C171.413 79.6291 171.931 80.4049 172.285 81.2587C172.638 82.1126 172.82 83.0277 172.82 83.9519C172.82 84.8761 172.638 85.7913 172.285 86.6452C171.931 87.499 171.413 88.2748 170.759 88.9283L170.66 88.8288Z" fill="#37C455"/>
</g>
<defs>
<filter id="filter0_d_335_4996" x="0" y="0" width="240" height="240" filterUnits="userSpaceOnUse" color-interpolation-filters="sRGB">
<feFlood flood-opacity="0" result="BackgroundImageFix"/>
<feColorMatrix in="SourceAlpha" type="matrix" values="0 0 0 0 0 0 0 0 0 0 0 0 0 0 0 0 0 0 127 0" result="hardAlpha"/>
<feOffset dy="4"/>
<feGaussianBlur stdDeviation="2"/>
<feComposite in2="hardAlpha" operator="out"/>
<feColorMatrix type="matrix" values="0 0 0 0 0 0 0 0 0 0 0 0 0 0 0 0 0 0 0.25 0"/>
<feBlend mode="normal" in2="BackgroundImageFix" result="effect1_dropShadow_335_4996"/>
<feBlend mode="normal" in="SourceGraphic" in2="effect1_dropShadow_335_4996" result="shape"/>
</filter>
</defs>
</svg>
