<svg width="22" height="22" viewBox="0 0 22 22" fill="none" xmlns="http://www.w3.org/2000/svg">
<path d="M2.75012 15.8125V19.2499H6.18752L16.3255 9.11191L12.8881 5.67234L2.75012 15.8125ZM18.9847 6.45268C19.0697 6.36793 19.1372 6.26722 19.1832 6.15635C19.2292 6.04547 19.2529 5.9266 19.2529 5.80655C19.2529 5.6865 19.2292 5.56763 19.1832 5.45675C19.1372 5.34588 19.0697 5.24517 18.9847 5.16041L16.8396 3.01529C16.7548 2.93027 16.6541 2.86281 16.5432 2.81679C16.4323 2.77076 16.3135 2.74707 16.1934 2.74707C16.0734 2.74707 15.9545 2.77076 15.8436 2.81679C15.7328 2.86281 15.632 2.93027 15.5473 3.01529L13.8697 4.69827L17.3071 8.13026L18.9847 6.45268Z" fill="#3F8C8E"/>
</svg>
