<svg width="186" height="17" viewBox="0 0 186 17" fill="none" xmlns="http://www.w3.org/2000/svg">
<path d="M0.9665 0.290999C1.1965 0.244999 1.45717 0.214332 1.7485 0.198999C2.0475 0.183666 2.29667 0.175999 2.496 0.175999C2.71833 0.175999 2.9675 0.183666 3.2435 0.198999C3.52717 0.214332 3.7955 0.244999 4.0485 0.290999V16C3.7955 16.046 3.52717 16.0767 3.2435 16.092C2.9675 16.1073 2.71833 16.115 2.496 16.115C2.29667 16.115 2.0475 16.1073 1.7485 16.092C1.45717 16.0767 1.1965 16.046 0.9665 16V0.290999ZM7.91681 0.336999C8.16215 0.283332 8.47265 0.244999 8.84831 0.221999C9.23165 0.191333 9.53065 0.175999 9.74531 0.175999C9.95998 0.175999 10.236 0.183666 10.5733 0.198999C10.9106 0.214332 11.2403 0.244999 11.5623 0.290999L10.7688 3.833L10.5503 3.8905C10.5963 4.4885 10.6346 5.15933 10.6653 5.903C10.7036 6.64667 10.7343 7.39417 10.7573 8.1455C10.7803 8.88917 10.7918 9.56383 10.7918 10.1695V16C10.5388 16.046 10.2896 16.0767 10.0443 16.092C9.79898 16.1073 9.58048 16.115 9.38881 16.115C9.19715 16.115 8.96331 16.1073 8.68731 16.092C8.41898 16.0767 8.16215 16.046 7.91681 16V0.336999ZM12.0108 7.0875C11.7348 6.50483 11.4818 5.9375 11.2518 5.3855C11.0218 4.8335 10.8148 4.32367 10.6308 3.856L9.19331 2.177L11.5623 0.290999L15.7368 9.192C16.0281 9.82833 16.3003 10.4455 16.5533 11.0435C16.8063 11.6338 17.0286 12.1552 17.2203 12.6075L18.7728 14.2635L16.2543 16L12.0108 7.0875ZM19.9228 0.3025V15.954C19.6775 16.0077 19.3631 16.046 18.9798 16.069C18.6041 16.0997 18.2975 16.115 18.0598 16.115C17.8298 16.115 17.5538 16.1073 17.2318 16.092C16.9098 16.0767 16.584 16.046 16.2543 16L17.0708 12.6305L17.3123 12.573C17.2586 11.906 17.2126 11.1853 17.1743 10.411C17.136 9.63667 17.1091 8.88533 17.0938 8.157C17.0785 7.42867 17.0708 6.8 17.0708 6.271V2.0505C17.0708 1.36817 17.2011 0.885166 17.4618 0.601499C17.7301 0.310166 18.1671 0.164499 18.7728 0.164499H19.7733L19.9228 0.3025ZM22.1418 2.867C22.0958 2.637 22.0651 2.41083 22.0498 2.1885C22.0344 1.96617 22.0268 1.76683 22.0268 1.5905C22.0268 1.4065 22.0344 1.20333 22.0498 0.980999C22.0651 0.750999 22.0958 0.520999 22.1418 0.290999H33.1358C33.1894 0.459666 33.2278 0.651332 33.2508 0.865999C33.2814 1.08067 33.2968 1.28767 33.2968 1.487C33.2968 1.993 33.1626 2.3495 32.8943 2.5565C32.6259 2.7635 32.2081 2.867 31.6408 2.867H30.5598C30.4064 2.867 30.1803 2.86317 29.8813 2.8555C29.5823 2.84783 29.3484 2.844 29.1798 2.844H26.0863C25.9253 2.844 25.6914 2.84783 25.3848 2.8555C25.0858 2.86317 24.8558 2.867 24.6948 2.867H22.1418ZM26.0863 4.546C26.0863 4.23167 26.0863 3.95183 26.0863 3.7065C26.0939 3.4535 26.0978 3.166 26.0978 2.844V1.579H29.1568V2.844C29.1568 3.166 29.1606 3.4535 29.1683 3.7065C29.1759 3.95183 29.1798 4.23167 29.1798 4.546V16C28.9191 16.046 28.6508 16.0767 28.3748 16.092C28.0988 16.1073 27.8534 16.115 27.6388 16.115C27.4088 16.115 27.1558 16.1073 26.8798 16.092C26.6038 16.0767 26.3393 16.046 26.0863 16V4.546ZM35.2627 0.440499L35.4122 0.290999H38.2872V2.821C38.2872 3.143 38.2911 3.419 38.2987 3.649C38.3064 3.879 38.3102 4.15117 38.3102 4.4655V12.067C38.3102 12.32 38.3064 12.5538 38.2987 12.7685C38.2911 12.9755 38.2872 13.2132 38.2872 13.4815V16.046H37.0337C36.4817 16.046 36.0486 15.8812 35.7342 15.5515C35.4199 15.2218 35.2627 14.7733 35.2627 14.206V0.440499ZM43.7037 6.823C43.7651 7.01467 43.8072 7.23317 43.8302 7.4785C43.8609 7.71617 43.8762 7.91933 43.8762 8.088C43.8762 8.26433 43.8609 8.47133 43.8302 8.709C43.8072 8.939 43.7651 9.15367 43.7037 9.353H39.8052C39.6212 9.353 39.3721 9.353 39.0577 9.353C38.7434 9.34533 38.4214 9.3415 38.0917 9.3415C37.7621 9.33383 37.4784 9.32617 37.2407 9.3185V6.8575C37.4784 6.84983 37.7621 6.846 38.0917 6.846C38.4214 6.83833 38.7434 6.8345 39.0577 6.8345C39.3721 6.82683 39.6212 6.823 39.8052 6.823H43.7037ZM45.0147 0.290999C45.0607 0.520999 45.0876 0.739499 45.0952 0.9465C45.1029 1.14583 45.1067 1.33367 45.1067 1.51C45.1067 1.68633 45.0876 1.901 45.0492 2.154C45.0109 2.407 44.9496 2.65233 44.8652 2.89H39.8052C39.6212 2.89 39.3721 2.89 39.0577 2.89C38.7434 2.88233 38.4214 2.87467 38.0917 2.867C37.7621 2.85933 37.4784 2.85167 37.2407 2.844V0.290999H45.0147ZM45.5207 13.447C45.5207 14.3287 45.3827 14.9842 45.1067 15.4135C44.8384 15.8352 44.3017 16.046 43.4967 16.046H37.2407V13.5505C37.6777 13.5275 38.0994 13.5045 38.5057 13.4815C38.9197 13.4585 39.3836 13.447 39.8972 13.447H45.5207ZM47.219 0.773999C47.5256 0.559332 47.8591 0.394499 48.2195 0.279499C48.5798 0.156833 48.9171 0.0954998 49.2315 0.0954998C49.6531 0.0954998 50.0096 0.183666 50.301 0.36C50.6 0.528666 50.8951 0.842999 51.1865 1.303L60.007 15.517C59.7003 15.7317 59.3668 15.8965 59.0065 16.0115C58.6538 16.1342 58.3165 16.1955 57.9945 16.1955C57.5728 16.1955 57.2086 16.1073 56.902 15.931C56.603 15.7547 56.3078 15.4327 56.0165 14.965L47.219 0.773999ZM56.557 0.290999C56.7103 0.252666 56.8981 0.221999 57.1205 0.198999C57.3428 0.175999 57.5805 0.164499 57.8335 0.164499C58.1401 0.164499 58.4391 0.191332 58.7305 0.244999C59.0218 0.298666 59.2633 0.359999 59.455 0.428999L59.5355 0.601499L54.7055 8.502L53.452 9.8935L49.795 16C49.6416 16.0383 49.45 16.069 49.22 16.092C48.99 16.115 48.7446 16.1265 48.484 16.1265C48.185 16.1265 47.8898 16.0997 47.5985 16.046C47.3071 15.9923 47.0541 15.9272 46.8395 15.8505L46.759 15.6665L52.1065 7.0185L53.36 5.627L56.557 0.290999ZM60.794 11.0665C60.748 10.8672 60.7135 10.6525 60.6905 10.4225C60.6752 10.1848 60.6675 9.98933 60.6675 9.836C60.6675 9.675 60.6752 9.4795 60.6905 9.2495C60.7135 9.01183 60.748 8.79333 60.794 8.594H66.9005C66.9542 8.79333 66.9887 9.01183 67.004 9.2495C67.0193 9.4795 67.027 9.675 67.027 9.836C67.027 9.98933 67.0193 10.1848 67.004 10.4225C66.9887 10.6525 66.9542 10.8672 66.9005 11.0665H60.794ZM70.7135 0.3025C71.0431 0.248833 71.4073 0.214332 71.806 0.198999C72.2046 0.175999 72.5343 0.164499 72.795 0.164499C73.0633 0.164499 73.3738 0.175999 73.7265 0.198999C74.0791 0.214332 74.4203 0.248833 74.75 0.3025L76.5095 6.685C76.5555 6.846 76.6168 7.09517 76.6935 7.4325C76.7778 7.76983 76.866 8.14167 76.958 8.548C77.05 8.95433 77.1343 9.34533 77.211 9.721C77.2953 10.0967 77.3528 10.3957 77.3835 10.618H77.533C77.5713 10.3957 77.6288 10.0967 77.7055 9.721C77.7898 9.34533 77.878 8.95433 77.97 8.548C78.062 8.14167 78.1501 7.76983 78.2345 7.4325C78.3188 7.09517 78.3801 6.846 78.4185 6.685L80.178 0.3025C80.523 0.248833 80.868 0.214332 81.213 0.198999C81.558 0.175999 81.8646 0.164499 82.133 0.164499C82.4013 0.164499 82.731 0.175999 83.122 0.198999C83.513 0.214332 83.8771 0.248833 84.2145 0.3025L85.4335 15.9655C85.2111 16.0192 84.9543 16.0575 84.663 16.0805C84.3793 16.1112 84.1148 16.1265 83.8695 16.1265C83.6318 16.1265 83.4018 16.1188 83.1795 16.1035C82.9571 16.0882 82.731 16.0613 82.501 16.023L82.064 8.6515C82.041 8.1685 82.0141 7.63183 81.9835 7.0415C81.9605 6.4435 81.9375 5.84933 81.9145 5.259C81.8991 4.66867 81.8876 4.13583 81.88 3.6605H81.742L79.0395 13.6425C78.8095 13.6808 78.5411 13.7115 78.2345 13.7345C77.9355 13.7498 77.6748 13.7575 77.4525 13.7575C77.2455 13.7575 76.9886 13.7498 76.682 13.7345C76.3753 13.7115 76.107 13.6808 75.877 13.6425L73.186 3.6605H73.048C73.0403 4.13583 73.025 4.66867 73.002 5.259C72.9866 5.84933 72.9675 6.4435 72.9445 7.0415C72.9215 7.63183 72.8946 8.1685 72.864 8.6515L72.4155 16.023C72.1931 16.0613 71.967 16.0882 71.737 16.1035C71.507 16.1188 71.277 16.1265 71.047 16.1265C70.8016 16.1265 70.5333 16.1112 70.242 16.0805C69.9583 16.0575 69.7091 16.0192 69.4945 15.9655L70.7135 0.3025ZM92.3746 0.290999C92.6123 0.252666 92.9036 0.225833 93.2486 0.2105C93.6013 0.1875 93.9041 0.175999 94.1571 0.175999C94.4024 0.175999 94.6976 0.1875 95.0426 0.2105C95.3953 0.225833 95.6866 0.2565 95.9166 0.3025L100.965 15.8045C100.75 15.9272 100.478 16.0192 100.149 16.0805C99.8189 16.1495 99.5008 16.184 99.1941 16.184C98.7034 16.184 98.3201 16.0728 98.0441 15.8505C97.7758 15.6205 97.5458 15.1797 97.3541 14.528L95.2726 7.651C95.0809 6.99167 94.8701 6.25567 94.6401 5.443C94.4178 4.63033 94.2184 3.88283 94.0421 3.2005H93.9041C93.8274 3.58383 93.7278 4.00933 93.6051 4.477C93.4901 4.937 93.3674 5.397 93.2371 5.857C93.1144 6.30933 93.0033 6.71183 92.9036 7.0645L90.1551 16.023C89.9634 16.069 89.7564 16.0997 89.5341 16.115C89.3118 16.1303 89.0779 16.138 88.8326 16.138C88.5873 16.138 88.3228 16.1188 88.0391 16.0805C87.7554 16.0422 87.5216 15.9923 87.3376 15.931L87.2341 15.77L92.3746 0.290999ZM92.3631 12.4695C92.2711 12.4695 92.1369 12.4695 91.9606 12.4695C91.7843 12.4618 91.6041 12.458 91.4201 12.458C91.2438 12.4503 91.1096 12.4465 91.0176 12.4465H89.4651L90.4081 10.0085H91.7766C91.8686 10.0085 91.9951 10.0085 92.1561 10.0085C92.3248 10.0008 92.4896 9.997 92.6506 9.997C92.8193 9.98933 92.9458 9.9855 93.0301 9.9855H95.0081C95.1078 9.9855 95.2381 9.98933 95.3991 9.997C95.5601 9.997 95.7249 10.0008 95.8936 10.0085C96.0623 10.0085 96.1926 10.0085 96.2846 10.0085H97.6991L98.4926 12.4465H96.9401C96.8481 12.4465 96.7101 12.4503 96.5261 12.458C96.3498 12.458 96.1696 12.4618 95.9856 12.4695C95.8093 12.4695 95.6751 12.4695 95.5831 12.4695H92.3631ZM114.029 5.0405C114.029 5.76117 113.891 6.40517 113.615 6.9725C113.346 7.53983 112.994 8.01517 112.557 8.3985C112.12 8.78183 111.656 9.06167 111.165 9.238C111.571 9.38367 111.913 9.6405 112.189 10.0085C112.472 10.3688 112.698 10.7905 112.867 11.2735L113.718 13.5735C113.864 13.9798 114.021 14.3172 114.19 14.5855C114.366 14.8538 114.569 15.08 114.799 15.264C114.6 15.5323 114.305 15.7547 113.914 15.931C113.53 16.0997 113.135 16.184 112.729 16.184C112.169 16.184 111.759 16.0307 111.499 15.724C111.238 15.4173 111 14.9612 110.786 14.3555L109.808 11.6185C109.647 11.1585 109.417 10.7713 109.118 10.457C108.819 10.135 108.34 9.974 107.681 9.974H105.024V7.628C105.338 7.61267 105.714 7.59733 106.151 7.582C106.596 7.559 107.025 7.54367 107.439 7.536C107.853 7.52833 108.171 7.5245 108.394 7.5245C109.061 7.5245 109.57 7.40567 109.923 7.168C110.276 6.92267 110.521 6.61217 110.659 6.2365C110.797 5.85317 110.866 5.4545 110.866 5.0405C110.866 4.6035 110.797 4.19717 110.659 3.8215C110.521 3.44583 110.276 3.13917 109.923 2.9015C109.57 2.66383 109.061 2.545 108.394 2.545C108.118 2.545 107.788 2.545 107.405 2.545C107.021 2.53733 106.646 2.52967 106.278 2.522V16C106.032 16.046 105.768 16.0767 105.484 16.092C105.208 16.1073 104.959 16.115 104.737 16.115C104.545 16.115 104.303 16.1073 104.012 16.092C103.721 16.0767 103.456 16.046 103.219 16V0.4175L103.38 0.256499C104.3 0.241166 105.193 0.225833 106.059 0.2105C106.933 0.1875 107.784 0.175999 108.612 0.175999C109.678 0.175999 110.617 0.352333 111.43 0.705C112.242 1.05767 112.879 1.59433 113.339 2.315C113.799 3.03567 114.029 3.94417 114.029 5.0405ZM117.212 0.290999C117.449 0.244999 117.714 0.214332 118.005 0.198999C118.304 0.183666 118.553 0.175999 118.753 0.175999C118.967 0.175999 119.217 0.183666 119.5 0.198999C119.792 0.214332 120.06 0.244999 120.305 0.290999V16C120.06 16.046 119.792 16.0767 119.5 16.092C119.217 16.1073 118.967 16.115 118.753 16.115C118.553 16.115 118.304 16.1073 118.005 16.092C117.714 16.0767 117.449 16.046 117.212 16V0.290999ZM129.045 15.218C128.846 15.5247 128.551 15.7623 128.16 15.931C127.776 16.092 127.385 16.1725 126.987 16.1725C126.404 16.1725 125.986 16.023 125.733 15.724C125.48 15.425 125.254 14.9727 125.055 14.367L124.008 11.354C123.732 10.5567 123.41 9.997 123.042 9.675C122.674 9.34533 122.184 9.1805 121.57 9.1805C121.279 9.1805 120.892 9.19583 120.409 9.2265C119.926 9.2495 119.366 9.284 118.73 9.33V7.3865H122.996C123.824 7.3865 124.48 7.50533 124.963 7.743C125.453 7.98067 125.841 8.31033 126.124 8.732C126.408 9.15367 126.646 9.652 126.837 10.227L127.93 13.2975C128.068 13.6808 128.19 13.9913 128.298 14.229C128.405 14.459 128.516 14.6468 128.631 14.7925C128.754 14.9382 128.892 15.08 129.045 15.218ZM124.733 1.326C124.94 0.942666 125.154 0.658999 125.377 0.475C125.599 0.283332 125.948 0.187499 126.423 0.187499C126.684 0.187499 126.975 0.195166 127.297 0.2105C127.627 0.225833 127.941 0.248833 128.24 0.279499L128.424 0.509499L125.308 6.087C124.917 6.8 124.422 7.3635 123.824 7.7775C123.226 8.18383 122.444 8.387 121.478 8.387H118.73V6.639C119.128 6.62367 119.546 6.61217 119.983 6.6045C120.42 6.59683 120.834 6.58917 121.225 6.5815C121.486 6.5815 121.674 6.53167 121.789 6.432C121.904 6.32467 122.038 6.13683 122.191 5.8685L124.733 1.326ZM131.216 0.440499L131.365 0.290999H134.24V2.821C134.24 3.143 134.244 3.419 134.252 3.649C134.26 3.879 134.263 4.15117 134.263 4.4655V12.067C134.263 12.32 134.26 12.5538 134.252 12.7685C134.244 12.9755 134.24 13.2132 134.24 13.4815V16.046H132.987C132.435 16.046 132.002 15.8812 131.687 15.5515C131.373 15.2218 131.216 14.7733 131.216 14.206V0.440499ZM139.657 6.823C139.718 7.01467 139.76 7.23317 139.783 7.4785C139.814 7.71617 139.829 7.91933 139.829 8.088C139.829 8.26433 139.814 8.47133 139.783 8.709C139.76 8.939 139.718 9.15367 139.657 9.353H135.758C135.574 9.353 135.325 9.353 135.011 9.353C134.697 9.34533 134.375 9.3415 134.045 9.3415C133.715 9.33383 133.432 9.32617 133.194 9.3185V6.8575C133.432 6.84983 133.715 6.846 134.045 6.846C134.375 6.83833 134.697 6.8345 135.011 6.8345C135.325 6.82683 135.574 6.823 135.758 6.823H139.657ZM140.968 0.290999C141.014 0.520999 141.041 0.739499 141.048 0.9465C141.056 1.14583 141.06 1.33367 141.06 1.51C141.06 1.68633 141.041 1.901 141.002 2.154C140.964 2.407 140.903 2.65233 140.818 2.89H135.758C135.574 2.89 135.325 2.89 135.011 2.89C134.697 2.88233 134.375 2.87467 134.045 2.867C133.715 2.85933 133.432 2.85167 133.194 2.844V0.290999H140.968ZM141.474 13.447C141.474 14.3287 141.336 14.9842 141.06 15.4135C140.792 15.8352 140.255 16.046 139.45 16.046H133.194V13.5505C133.631 13.5275 134.053 13.5045 134.459 13.4815C134.873 13.4585 135.337 13.447 135.85 13.447H141.474ZM142.712 2.867C142.666 2.637 142.635 2.41083 142.62 2.1885C142.605 1.96617 142.597 1.76683 142.597 1.5905C142.597 1.4065 142.605 1.20333 142.62 0.980999C142.635 0.750999 142.666 0.520999 142.712 0.290999H153.706C153.76 0.459666 153.798 0.651332 153.821 0.865999C153.852 1.08067 153.867 1.28767 153.867 1.487C153.867 1.993 153.733 2.3495 153.465 2.5565C153.196 2.7635 152.778 2.867 152.211 2.867H151.13C150.977 2.867 150.751 2.86317 150.452 2.8555C150.153 2.84783 149.919 2.844 149.75 2.844H146.657C146.496 2.844 146.262 2.84783 145.955 2.8555C145.656 2.86317 145.426 2.867 145.265 2.867H142.712ZM146.657 4.546C146.657 4.23167 146.657 3.95183 146.657 3.7065C146.664 3.4535 146.668 3.166 146.668 2.844V1.579H149.727V2.844C149.727 3.166 149.731 3.4535 149.739 3.7065C149.746 3.95183 149.75 4.23167 149.75 4.546V16C149.489 16.046 149.221 16.0767 148.945 16.092C148.669 16.1073 148.424 16.115 148.209 16.115C147.979 16.115 147.726 16.1073 147.45 16.092C147.174 16.0767 146.91 16.046 146.657 16V4.546ZM153.405 14.5855C153.405 14.4475 153.424 14.2443 153.462 13.976C153.501 13.7077 153.562 13.4853 153.646 13.309C153.838 13.2017 154.083 13.1135 154.382 13.0445C154.689 12.9755 154.984 12.941 155.268 12.941C155.528 12.941 155.812 12.9755 156.119 13.0445C156.433 13.1135 156.686 13.2017 156.878 13.309C156.962 13.4853 157.023 13.7077 157.062 13.976C157.1 14.2443 157.119 14.4475 157.119 14.5855C157.119 14.7235 157.1 14.9267 157.062 15.195C157.023 15.4633 156.962 15.6818 156.878 15.8505C156.694 15.9732 156.445 16.0652 156.13 16.1265C155.816 16.1878 155.528 16.2185 155.268 16.2185C154.984 16.2185 154.689 16.1878 154.382 16.1265C154.083 16.0652 153.838 15.9732 153.646 15.8505C153.562 15.6818 153.501 15.4633 153.462 15.195C153.424 14.9267 153.405 14.7235 153.405 14.5855ZM171.766 10.342C171.766 11.6223 171.524 12.7072 171.041 13.5965C170.558 14.4858 169.868 15.1643 168.971 15.632C168.074 16.092 166.997 16.322 165.74 16.322C164.483 16.322 163.405 16.092 162.508 15.632C161.611 15.1643 160.921 14.4858 160.438 13.5965C159.955 12.7072 159.714 11.6223 159.714 10.342V0.313999L159.875 0.164499H161.025C161.623 0.164499 162.068 0.321666 162.359 0.635999C162.658 0.942666 162.807 1.43717 162.807 2.1195V10.3535C162.807 11.5035 163.041 12.3737 163.509 12.964C163.984 13.5543 164.728 13.8495 165.74 13.8495C166.752 13.8495 167.492 13.5543 167.959 12.964C168.435 12.3737 168.672 11.5035 168.672 10.3535V0.290999C168.925 0.244999 169.186 0.214332 169.454 0.198999C169.73 0.183666 169.972 0.175999 170.179 0.175999C170.386 0.175999 170.643 0.183666 170.949 0.198999C171.256 0.214332 171.528 0.244999 171.766 0.290999V10.342ZM179.97 5.0635C180.2 4.72617 180.488 4.34283 180.833 3.9135C181.178 3.48417 181.5 3.0855 181.799 2.7175L181.73 2.6485C181.5 2.67917 181.224 2.70983 180.902 2.7405C180.587 2.7635 180.258 2.78267 179.913 2.798C179.568 2.80567 179.242 2.81333 178.935 2.821C178.628 2.82867 178.372 2.8325 178.165 2.8325H174.68C174.634 2.6485 174.6 2.47217 174.577 2.3035C174.561 2.13483 174.554 1.96617 174.554 1.7975C174.554 1.52917 174.573 1.27617 174.611 1.0385C174.649 0.800833 174.703 0.551666 174.772 0.290999H184.616C184.754 0.766333 184.85 1.12667 184.904 1.372C184.965 1.61733 185.003 1.80133 185.019 1.924C185.042 2.039 185.053 2.13867 185.053 2.223C185.053 2.39933 185.026 2.58333 184.973 2.775C184.919 2.96667 184.823 3.16217 184.685 3.3615L179.246 11.17C179.016 11.5073 178.732 11.8907 178.395 12.32C178.065 12.7417 177.751 13.1288 177.452 13.4815L177.521 13.5505C178.011 13.5045 178.548 13.47 179.131 13.447C179.713 13.4163 180.215 13.401 180.637 13.401H182.454C183.037 13.401 183.547 13.355 183.984 13.263C184.428 13.171 184.804 13.0522 185.111 12.9065C185.164 13.1058 185.214 13.332 185.26 13.585C185.306 13.838 185.329 14.0872 185.329 14.3325C185.329 14.8922 185.141 15.31 184.766 15.586C184.398 15.862 183.895 16 183.259 16H174.496C174.389 15.5477 174.308 15.2027 174.255 14.965C174.209 14.7197 174.178 14.5395 174.163 14.4245C174.147 14.3018 174.14 14.1983 174.14 14.114C174.14 13.9147 174.17 13.7077 174.232 13.493C174.293 13.2783 174.389 13.079 174.519 12.895L179.97 5.0635Z" fill="#009398"/>
</svg>
