<svg width="122" height="131" viewBox="0 0 122 131" fill="none" xmlns="http://www.w3.org/2000/svg">
<path d="M12.4762 87.3333C19.3666 87.3333 24.9524 81.7476 24.9524 74.8571C24.9524 67.9667 19.3666 62.381 12.4762 62.381C5.58578 62.381 0 67.9667 0 74.8571C0 81.7476 5.58578 87.3333 12.4762 87.3333Z" fill="#FFA726"/>
<path d="M99.8092 87.3333C106.7 87.3333 112.285 81.7476 112.285 74.8571C112.285 67.9667 106.7 62.381 99.8092 62.381C92.9188 62.381 87.333 67.9667 87.333 74.8571C87.333 81.7476 92.9188 87.3333 99.8092 87.3333Z" fill="#FFA726"/>
<path d="M102.929 53.0238C102.929 13.4119 9.35742 27.1357 9.35742 53.0238V84.2143C9.35742 110.102 30.255 131 56.1431 131C82.0312 131 102.929 110.102 102.929 84.2143V53.0238Z" fill="#FFB74D"/>
<path d="M56.143 3.11905C26.8239 3.11905 3.11914 26.8238 3.11914 56.1429V66.7476L9.35724 71.7381V62.381L74.8572 31.8143L102.929 62.381V71.7381L109.167 66.7476V56.1429C109.167 31.1905 91.3882 3.11905 56.143 3.11905Z" fill="#FF5722"/>
<path d="M77.9764 81.0953C81.4216 81.0953 84.2145 78.3024 84.2145 74.8572C84.2145 71.412 81.4216 68.6191 77.9764 68.6191C74.5312 68.6191 71.7383 71.412 71.7383 74.8572C71.7383 78.3024 74.5312 81.0953 77.9764 81.0953Z" fill="#784719"/>
<path d="M34.3094 81.0952C37.7546 81.0952 40.5475 78.3024 40.5475 74.8571C40.5475 71.4119 37.7546 68.619 34.3094 68.619C30.8642 68.619 28.0713 71.4119 28.0713 74.8571C28.0713 78.3024 30.8642 81.0952 34.3094 81.0952Z" fill="#784719"/>
<path d="M115.405 68.6191C113.533 68.6191 112.286 69.8667 112.286 71.7381V49.9048C112.286 22.4571 89.8287 0 62.3811 0H40.5478C38.6763 0 37.4287 1.24762 37.4287 3.11905C37.4287 4.99048 38.6763 6.2381 40.5478 6.2381H62.3811C86.3978 6.2381 106.048 25.8881 106.048 49.9048V81.0953C106.048 82.9667 107.295 84.2143 109.167 84.2143C111.038 84.2143 112.286 82.9667 112.286 81.0953V87.3333C112.286 99.4976 102.617 109.167 90.4525 109.167H56.143C54.2716 109.167 53.024 110.414 53.024 112.286C53.024 114.157 54.2716 115.405 56.143 115.405H90.4525C106.048 115.405 118.524 102.929 118.524 87.3333V71.7381C118.524 69.8667 117.276 68.6191 115.405 68.6191Z" fill="#757575"/>
<path d="M115.405 62.381H112.286C108.855 62.381 106.048 65.1881 106.048 68.619V81.0952C106.048 84.5262 108.855 87.3333 112.286 87.3333H115.405C118.836 87.3333 121.643 84.5262 121.643 81.0952V68.619C121.643 65.1881 118.836 62.381 115.405 62.381Z" fill="#37474F"/>
<path d="M56.1434 118.524C59.5886 118.524 62.3815 115.731 62.3815 112.286C62.3815 108.841 59.5886 106.048 56.1434 106.048C52.6982 106.048 49.9053 108.841 49.9053 112.286C49.9053 115.731 52.6982 118.524 56.1434 118.524Z" fill="#37474F"/>
</svg>
