<svg width="32" height="29" viewBox="0 0 32 29" fill="none" xmlns="http://www.w3.org/2000/svg">
<path d="M2.376 0.455078H30.3257C30.7375 0.455078 31.1325 0.620325 31.4237 0.914465C31.7149 1.20861 31.8785 1.60755 31.8785 2.02352V27.1187C31.8785 27.5347 31.7149 27.9336 31.4237 28.2277C31.1325 28.5219 30.7375 28.6871 30.3257 28.6871H2.376C1.96419 28.6871 1.56924 28.5219 1.27804 28.2277C0.986836 27.9336 0.823242 27.5347 0.823242 27.1187V2.02352C0.823242 1.60755 0.986836 1.20861 1.27804 0.914465C1.56924 0.620325 1.96419 0.455078 2.376 0.455078ZM3.92877 3.59197V25.5502H28.773V3.59197H3.92877ZM10.9162 17.708H19.4564C19.6623 17.708 19.8598 17.6254 20.0054 17.4783C20.151 17.3312 20.2328 17.1318 20.2328 16.9238C20.2328 16.7158 20.151 16.5163 20.0054 16.3692C19.8598 16.2222 19.6623 16.1395 19.4564 16.1395H13.2453C12.2158 16.1395 11.2284 15.7264 10.5004 14.9911C9.77242 14.2557 9.36343 13.2584 9.36343 12.2184C9.36343 11.1785 9.77242 10.1811 10.5004 9.44578C11.2284 8.71043 12.2158 8.29731 13.2453 8.29731H14.7981V5.16042H17.9036V8.29731H21.7855V11.4342H13.2453C13.0394 11.4342 12.842 11.5168 12.6964 11.6639C12.5508 11.811 12.469 12.0104 12.469 12.2184C12.469 12.4264 12.5508 12.6259 12.6964 12.773C12.842 12.92 13.0394 13.0027 13.2453 13.0027H19.4564C20.4859 13.0027 21.4733 13.4158 22.2013 14.1511C22.9293 14.8865 23.3383 15.8838 23.3383 16.9238C23.3383 17.9637 22.9293 18.9611 22.2013 19.6964C21.4733 20.4318 20.4859 20.8449 19.4564 20.8449H17.9036V23.9818H14.7981V20.8449H10.9162V17.708Z" fill="#545454"/>
</svg>
