<svg width="29" height="29" viewBox="0 0 29 29" fill="none" xmlns="http://www.w3.org/2000/svg">
<path fill-rule="evenodd" clip-rule="evenodd" d="M14.5003 0C6.49206 0 0.000523815 6.49153 0.000523815 14.4997C-0.00259225 17.0081 0.647011 19.4741 1.88549 21.6554L0.0744727 27.0913C-0.0107272 27.3468 -0.0230919 27.6209 0.0387649 27.8831C0.100622 28.1452 0.234255 28.3849 0.424688 28.5753C0.61512 28.7657 0.854826 28.8994 1.11694 28.9612C1.37905 29.0231 1.65321 29.0107 1.90869 28.9255L7.34464 27.1131C9.52553 28.3527 11.9917 29.0028 14.5003 28.9995C22.5085 28.9995 29 22.5079 29 14.4997C29 6.49153 22.5085 0 14.5003 0ZM14.5003 8.69984C13.1924 8.69984 11.9904 9.13048 11.0203 9.85982C10.868 9.97407 10.6947 10.0572 10.5102 10.1045C10.3257 10.1517 10.1338 10.1622 9.94528 10.1352C9.75678 10.1083 9.57543 10.0445 9.41159 9.94751C9.24774 9.85049 9.10461 9.72216 8.99036 9.56983C8.87611 9.4175 8.79299 9.24415 8.74573 9.0597C8.69847 8.87524 8.68801 8.68328 8.71494 8.49479C8.74187 8.30629 8.80566 8.12494 8.90268 7.96109C8.99969 7.79724 9.12803 7.65411 9.28036 7.53986C10.9557 6.28335 13.0281 5.67333 15.117 5.82178C17.2059 5.97024 19.1712 6.86721 20.652 8.34802C22.1328 9.82883 23.0298 11.7941 23.1782 13.883C23.3267 15.9719 22.7166 18.0443 21.4601 19.7196C21.2234 20.0099 20.8836 20.1973 20.5119 20.2426C20.1401 20.2879 19.7652 20.1876 19.4657 19.9628C19.1663 19.7379 18.9654 19.4058 18.9053 19.0362C18.8451 18.6665 18.9303 18.2879 19.1431 17.9797C19.7895 17.1178 20.1831 16.0929 20.2797 15.0199C20.3763 13.9469 20.1721 12.8681 19.6901 11.9046C19.208 10.9412 18.4672 10.131 17.5505 9.56491C16.6338 8.99885 15.5776 8.6993 14.5003 8.69984ZM7.25039 13.0498C7.63495 13.0498 8.00376 13.2025 8.27568 13.4745C8.5476 13.7464 8.70037 14.1152 8.70037 14.4997C8.70037 16.038 9.31143 17.5132 10.3991 18.6009C11.4868 19.6886 12.962 20.2996 14.5003 20.2996C14.8848 20.2996 15.2536 20.4524 15.5255 20.7243C15.7975 20.9962 15.9502 21.365 15.9502 21.7496C15.9502 22.1342 15.7975 22.503 15.5255 22.7749C15.2536 23.0468 14.8848 23.1996 14.5003 23.1996C12.1929 23.1996 9.98008 22.283 8.34855 20.6515C6.71701 19.0199 5.80042 16.8071 5.80042 14.4997C5.80042 14.1152 5.95318 13.7464 6.22511 13.4745C6.49703 13.2025 6.86584 13.0498 7.25039 13.0498ZM14.5003 11.5998C13.7311 11.5998 12.9935 11.9053 12.4497 12.4492C11.9058 12.993 11.6003 13.7306 11.6003 14.4997C11.6003 15.2689 11.9058 16.0065 12.4497 16.5503C12.9935 17.0942 13.7311 17.3997 14.5003 17.3997C15.2694 17.3997 16.007 17.0942 16.5508 16.5503C17.0947 16.0065 17.4002 15.2689 17.4002 14.4997C17.4002 13.7306 17.0947 12.993 16.5508 12.4492C16.007 11.9053 15.2694 11.5998 14.5003 11.5998Z" fill="#545454"/>
</svg>
