<svg width="38" height="39" viewBox="0 0 38 39" fill="none" xmlns="http://www.w3.org/2000/svg">
<path d="M32.82 29.1947C32.5488 30.5232 31.8269 31.7172 30.7766 32.5746C29.7262 33.4321 28.4118 33.9003 27.0559 33.9H10.5872C9.23134 33.9003 7.91698 33.4321 6.86661 32.5746C5.81624 31.7172 5.09438 30.5232 4.8232 29.1947H15.0056L16.3254 30.5145C16.6531 30.8425 17.0423 31.1026 17.4706 31.2801C17.8989 31.4576 18.358 31.5489 18.8216 31.5489C19.2852 31.5489 19.7443 31.4576 20.1726 31.2801C20.6009 31.1026 20.99 30.8425 21.3178 30.5145L22.6376 29.1947H32.82ZM32.9376 26.842H24.9832C25.4375 26.3341 25.7351 25.7055 25.8399 25.0322C25.9447 24.3588 25.8523 23.6696 25.5739 23.0476C25.2955 22.4256 24.843 21.8975 24.271 21.5271C23.699 21.1568 23.032 20.9599 22.3506 20.9603V18.6077C23.0316 18.6072 23.698 18.4097 24.2693 18.0389C24.8406 17.6682 25.2924 17.14 25.5702 16.5183C25.848 15.8965 25.94 15.2075 25.835 14.5346C25.73 13.8617 25.4326 13.2336 24.9785 12.726H32.9376V26.842ZM4.8232 10.3733H15.0103L16.3278 9.05581C16.9894 8.39495 17.8864 8.02374 18.8216 8.02374C19.7568 8.02374 20.6537 8.39495 21.3154 9.05581L22.6329 10.3733H32.82C32.5488 9.0448 31.8269 7.85078 30.7766 6.99334C29.7262 6.1359 28.4118 5.66769 27.0559 5.66797H10.5872C9.23134 5.66769 7.91698 6.1359 6.86661 6.99334C5.81624 7.85078 5.09438 9.0448 4.8232 10.3733ZM12.7988 17.5748C12.1605 16.9372 11.7907 16.0794 11.7654 15.1776C11.74 14.2758 12.0609 13.3985 12.6623 12.726H4.70557V26.842H12.6599C12.2057 26.3341 11.9081 25.7055 11.8033 25.0322C11.6985 24.3588 11.7909 23.6696 12.0692 23.0476C12.3476 22.4256 12.8002 21.8975 13.3722 21.5271C13.9441 21.1568 14.6111 20.9599 15.2926 20.9603V18.6077C14.3892 18.6077 13.4857 18.2642 12.7988 17.5748ZM23.1834 15.9115C23.0742 16.021 22.9444 16.108 22.8014 16.1673C22.6585 16.2266 22.5053 16.2571 22.3506 16.2571C22.1959 16.2571 22.0427 16.2266 21.8997 16.1673C21.7568 16.108 21.627 16.021 21.5177 15.9115L19.9979 14.3893V25.1787L21.5177 23.6565C21.7386 23.4356 22.0382 23.3115 22.3506 23.3115C22.663 23.3115 22.9626 23.4356 23.1834 23.6565C23.4043 23.8774 23.5284 24.177 23.5284 24.4893C23.5284 24.8017 23.4043 25.1013 23.1834 25.3222L19.6544 28.8512C19.5452 28.9607 19.4154 29.0476 19.2724 29.1069C19.1295 29.1663 18.9763 29.1968 18.8216 29.1968C18.6669 29.1968 18.5137 29.1663 18.3707 29.1069C18.2278 29.0476 18.098 28.9607 17.9887 28.8512L14.4597 25.3222C14.2389 25.1013 14.1148 24.8017 14.1148 24.4893C14.1148 24.177 14.2389 23.8774 14.4597 23.6565C14.6806 23.4356 14.9802 23.3115 15.2926 23.3115C15.605 23.3115 15.9045 23.4356 16.1254 23.6565L17.6453 25.1787V14.3893L16.1254 15.9115C16.0161 16.0209 15.8862 16.1076 15.7433 16.1668C15.6004 16.226 15.4473 16.2565 15.2926 16.2565C15.1379 16.2565 14.9847 16.226 14.8419 16.1668C14.699 16.1076 14.5691 16.0209 14.4597 15.9115C14.3504 15.8021 14.2636 15.6723 14.2044 15.5294C14.1452 15.3865 14.1148 15.2333 14.1148 15.0787C14.1148 14.924 14.1452 14.7708 14.2044 14.6279C14.2636 14.485 14.3504 14.3552 14.4597 14.2458L17.9887 10.7168C18.098 10.6073 18.2278 10.5203 18.3707 10.461C18.5137 10.4017 18.6669 10.3712 18.8216 10.3712C18.9763 10.3712 19.1295 10.4017 19.2724 10.461C19.4154 10.5203 19.5452 10.6073 19.6544 10.7168L23.1834 14.2458C23.293 14.3551 23.3799 14.4849 23.4392 14.6278C23.4985 14.7707 23.529 14.9239 23.529 15.0787C23.529 15.2334 23.4985 15.3866 23.4392 15.5295C23.3799 15.6724 23.293 15.8022 23.1834 15.9115Z" fill="#545454"/>
</svg>
