<svg width="29" height="29" viewBox="0 0 29 29" fill="none" xmlns="http://www.w3.org/2000/svg">
<path d="M28.2168 25.521C28.217 25.9205 28.1385 26.3161 27.9858 26.6852C27.8331 27.0544 27.6091 27.3898 27.3267 27.6724C27.0442 27.9549 26.7089 28.179 26.3398 28.3319C25.9708 28.4848 25.5752 28.5635 25.1757 28.5634H3.04219C2.64277 28.5634 2.24728 28.4846 1.8783 28.3317C1.50933 28.1787 1.1741 27.9546 0.891768 27.6721C0.609438 27.3895 0.38554 27.0541 0.232863 26.685C0.0801857 26.316 0.00172185 25.9204 0.00195364 25.521V3.38927C0.0019536 2.58286 0.322235 1.80948 0.892365 1.23918C1.4625 0.668885 2.23579 0.348378 3.04219 0.348145L25.1757 0.348145C25.9822 0.348145 26.7557 0.668547 27.3261 1.23887C27.8964 1.80919 28.2168 2.58271 28.2168 3.38927V25.521Z" fill="#545454"/>
<path d="M7.4076 11.5047V6.40172C6.45785 7.13135 5.81866 7.49527 5.48958 7.49527C5.33298 7.49527 5.19315 7.43308 5.07272 7.30735C5.01454 7.25097 4.96834 7.18342 4.93689 7.10876C4.90543 7.0341 4.88937 6.95386 4.88965 6.87285C4.88965 6.68228 4.94965 6.54244 5.06919 6.45157C5.18874 6.36202 5.40003 6.24689 5.70265 6.10485C6.1548 5.89178 6.51741 5.66813 6.78782 5.43257C7.05766 5.19751 7.29965 4.93228 7.50906 4.64207C7.71771 4.34917 7.85358 4.17051 7.9171 4.10302C7.98018 4.03553 8.10149 4.00244 8.27661 4.00244C8.47424 4.00244 8.63304 4.07876 8.75347 4.23227C8.87302 4.38578 8.93213 4.59708 8.93213 4.86572V11.2859C8.93213 12.0362 8.67672 12.4125 8.16413 12.4125C7.93695 12.4125 7.75344 12.3353 7.61449 12.1822C7.47597 12.0296 7.4076 11.8029 7.4076 11.5047ZM19.1424 11.019H22.0693C22.3604 11.019 22.5828 11.0785 22.7372 11.1981C22.8893 11.3176 22.9665 11.4808 22.9665 11.686C22.9665 11.8695 22.9061 12.0239 22.7848 12.1514C22.663 12.2788 22.4791 12.3424 22.2329 12.3424H18.1058C17.8252 12.3424 17.6064 12.2652 17.4489 12.109C17.3745 12.0391 17.3153 11.9545 17.2751 11.8606C17.2348 11.7667 17.2144 11.6655 17.2151 11.5633C17.2151 11.4288 17.2654 11.2497 17.366 11.0274C17.4675 10.8059 17.5773 10.6308 17.6969 10.5033C18.1328 10.0482 18.5815 9.60547 19.0423 9.17552C19.4424 8.80762 19.7287 8.56544 19.9003 8.44943C20.2069 8.23284 20.4614 8.01536 20.6643 7.797C20.8542 7.5984 21.0116 7.37107 21.1306 7.12341C21.2327 6.9129 21.2873 6.68246 21.2903 6.44848C21.2903 6.20939 21.2329 5.99501 21.1191 5.8062C21.0074 5.61955 20.8464 5.46736 20.6537 5.3664C20.4567 5.26094 20.2362 5.20678 20.0128 5.20892C19.5218 5.20892 19.1371 5.42375 18.8561 5.85385C18.82 5.90987 18.7569 6.06382 18.6691 6.3135C18.5809 6.56494 18.4821 6.75904 18.3727 6.89137C18.2619 7.02592 18.1009 7.09341 17.887 7.09341C17.6999 7.09341 17.5451 7.03077 17.4216 6.90769C17.2976 6.78462 17.2363 6.61655 17.2363 6.40305C17.2363 6.14499 17.2941 5.87634 17.4106 5.59623C17.53 5.30954 17.7063 5.05007 17.9289 4.83352C18.1592 4.60546 18.4507 4.42107 18.8032 4.28079C19.1561 4.1414 19.5699 4.07082 20.045 4.07082C20.6167 4.07082 21.1037 4.15992 21.5086 4.34034C21.7684 4.45803 22.0025 4.62559 22.1977 4.83352C22.602 5.26055 22.827 5.82646 22.8263 6.41452C22.8263 6.87814 22.7107 7.30118 22.4822 7.67922C22.2519 8.05859 22.0164 8.35503 21.7781 8.5703C21.5382 8.78557 21.1372 9.12259 20.5752 9.5818C20.0123 10.0415 19.6272 10.3992 19.4177 10.6529C19.3168 10.767 19.2248 10.8886 19.1424 11.0168V11.019ZM7.53641 19.7753C7.88048 19.7753 8.1778 19.6743 8.42748 19.4723C8.67628 19.2707 8.79935 18.9809 8.79935 18.6033C8.79935 18.3152 8.70054 18.0673 8.50291 17.8613C8.30441 17.6526 8.03664 17.549 7.7005 17.549C7.47333 17.549 7.28452 17.5812 7.13807 17.6443C7.00223 17.6985 6.8817 17.7851 6.78693 17.8966C6.70003 18.0002 6.61886 18.1357 6.54255 18.3002C6.46624 18.4647 6.39698 18.6191 6.33257 18.766C6.28917 18.8497 6.2174 18.9153 6.1301 18.9509C6.02464 18.9976 5.91016 19.0205 5.79484 19.0179C5.64486 19.0179 5.50811 18.957 5.38239 18.8353C5.25755 18.714 5.19491 18.5521 5.19491 18.3505C5.19491 18.1555 5.2549 17.9513 5.37092 17.7369C5.4887 17.5221 5.66118 17.3165 5.88748 17.122C6.11333 16.9283 6.39433 16.7721 6.73135 16.6539C7.06661 16.5361 7.44201 16.477 7.85799 16.477C8.22015 16.477 8.55144 16.5278 8.85052 16.6261C9.13538 16.7174 9.39991 16.8628 9.62955 17.0545C9.84967 17.2419 10.016 17.4581 10.1289 17.7056C10.2414 17.9526 10.297 18.2177 10.297 18.5022C10.297 18.8759 10.2154 19.1966 10.0521 19.4626C9.88937 19.7312 9.6569 19.991 9.35429 20.246C9.64543 20.4026 9.89069 20.5821 10.0918 20.7833C10.2921 20.9862 10.4417 21.209 10.5422 21.4543C10.6433 21.6986 10.6931 21.9638 10.6931 22.2483C10.6931 22.5884 10.6256 22.9175 10.4906 23.2342C10.3502 23.556 10.1447 23.8452 9.88717 24.0838C9.6138 24.3385 9.29264 24.5364 8.94227 24.6661C8.57746 24.8064 8.17472 24.8769 7.73403 24.8769C7.28496 24.8769 6.8831 24.7958 6.52887 24.6348C6.17245 24.4755 5.88042 24.2748 5.65104 24.0335C5.42077 23.7927 5.24696 23.543 5.12918 23.2849C5.0114 23.0269 4.95317 22.8147 4.95317 22.6453C4.95317 22.4291 5.02331 22.2536 5.16315 22.1217C5.30343 21.988 5.47767 21.9227 5.68721 21.9227C5.7922 21.9227 5.89365 21.9527 5.98982 22.0154C6.08775 22.0771 6.15083 22.1508 6.18127 22.2364C6.37536 22.7565 6.58357 23.142 6.80546 23.3943C7.02911 23.6462 7.34099 23.7728 7.74506 23.7728C7.98703 23.7726 8.22486 23.7101 8.43564 23.5912C8.64642 23.4724 8.82303 23.3013 8.94845 23.0944C9.08873 22.8694 9.15887 22.6104 9.15887 22.3149C9.15887 21.8773 9.03844 21.5337 8.79935 21.2862C8.56026 21.0374 8.22721 20.9134 7.80196 20.9134C7.72653 20.9134 7.61184 20.9205 7.45436 20.9364C7.29687 20.9496 7.1963 20.9575 7.15174 20.9575C6.94662 20.9575 6.78693 20.9068 6.67445 20.8032C6.5624 20.6999 6.50726 20.5579 6.50726 20.3739C6.50726 20.1962 6.57475 20.0502 6.70841 19.9403C6.84296 19.83 7.04367 19.7749 7.30878 19.7749H7.53729L7.53641 19.7753ZM20.734 24.0573V23.0158H17.9192C17.5636 23.0158 17.2976 22.9342 17.1207 22.7741C16.943 22.6131 16.8543 22.3943 16.8543 22.1177C16.8543 22.0467 16.8667 21.9748 16.894 21.902C16.9191 21.8283 16.9588 21.752 17.0113 21.6722C17.0638 21.5914 17.1185 21.5138 17.1741 21.4393C17.2301 21.3647 17.2985 21.2738 17.3819 21.1644L20.3524 17.1899C20.5465 16.9287 20.7067 16.7391 20.8324 16.6204C20.8923 16.5629 20.9629 16.5179 21.0403 16.4878C21.1177 16.4578 21.2002 16.4433 21.2832 16.4453C21.8518 16.4453 22.1355 16.7695 22.1355 17.4193V21.76H22.3772C22.6644 21.76 22.8951 21.7988 23.0689 21.8777C23.2427 21.9558 23.33 22.1279 23.33 22.3934C23.33 22.61 23.2599 22.7679 23.1165 22.8672C22.9749 22.9664 22.7614 23.0167 22.4773 23.0167H22.1359V24.0582C22.1359 24.3458 22.0728 24.5607 21.944 24.7001C21.8179 24.8399 21.648 24.9109 21.435 24.9109C21.2259 24.9109 21.0573 24.8386 20.9281 24.6948C20.7984 24.5496 20.734 24.3388 20.734 24.0578V24.0573ZM18.3228 21.7595H20.734V18.5022L18.3228 21.7595Z" fill="white"/>
</svg>
